<svg width="30" height="31" viewBox="0 0 30 31" fill="none" xmlns="http://www.w3.org/2000/svg">
<g clip-path="url(#clip0_1009_3061)">
<path d="M23.75 4.25H22.5V1.75H20V4.25H10V1.75H7.5V4.25H6.25C4.8625 4.25 3.75 5.375 3.75 6.75V24.25C3.75 25.625 4.8625 26.75 6.25 26.75H23.75C25.125 26.75 26.25 25.625 26.25 24.25V6.75C26.25 5.375 25.125 4.25 23.75 4.25ZM15 8C17.075 8 18.75 9.675 18.75 11.75C18.75 13.825 17.075 15.5 15 15.5C12.925 15.5 11.25 13.825 11.25 11.75C11.25 9.675 12.925 8 15 8ZM22.5 23H7.5V21.75C7.5 19.25 12.5 17.875 15 17.875C17.5 17.875 22.5 19.25 22.5 21.75V23Z" fill="black"/>
</g>
<defs>
<clipPath id="clip0_1009_3061">
<rect width="30" height="30" fill="white" transform="translate(0 0.5)"/>
</clipPath>
</defs>
</svg>
