<svg width="18" height="25" viewBox="0 0 18 25" fill="none" xmlns="http://www.w3.org/2000/svg">
<path d="M9 0C4.1625 0 0.25 3.9125 0.25 8.75C0.25 10.925 0.875 12.9625 2.0125 14.8C3.2 16.725 4.7625 18.375 5.9625 20.3C6.55 21.2375 6.975 22.1125 7.425 23.125C7.75 23.8125 8.0125 25 9 25C9.9875 25 10.25 23.8125 10.5625 23.125C11.025 22.1125 11.4375 21.2375 12.025 20.3C13.225 18.3875 14.7875 16.7375 15.975 14.8C17.125 12.9625 17.75 10.925 17.75 8.75C17.75 3.9125 13.8375 0 9 0ZM9 12.1875C7.275 12.1875 5.875 10.7875 5.875 9.0625C5.875 7.3375 7.275 5.9375 9 5.9375C10.725 5.9375 12.125 7.3375 12.125 9.0625C12.125 10.7875 10.725 12.1875 9 12.1875Z" fill="#1C1B1F"/>
</svg>
