<svg width="22" height="22" viewBox="0 0 22 22" fill="none" xmlns="http://www.w3.org/2000/svg">
<path d="M10.874 5.86523C7.87402 5.86523 5.4834 8.30273 5.4834 11.2559C5.4834 14.2559 7.87402 16.6465 10.874 16.6465C13.8271 16.6465 16.2646 14.2559 16.2646 11.2559C16.2646 8.30273 13.8271 5.86523 10.874 5.86523ZM10.874 14.7715C8.95215 14.7715 7.3584 13.2246 7.3584 11.2559C7.3584 9.33398 8.90527 7.78711 10.874 7.78711C12.7959 7.78711 14.3428 9.33398 14.3428 11.2559C14.3428 13.2246 12.7959 14.7715 10.874 14.7715ZM17.7178 5.67773C17.7178 4.97461 17.1553 4.41211 16.4521 4.41211C15.749 4.41211 15.1865 4.97461 15.1865 5.67773C15.1865 6.38086 15.749 6.94336 16.4521 6.94336C17.1553 6.94336 17.7178 6.38086 17.7178 5.67773ZM21.2803 6.94336C21.1865 5.25586 20.8115 3.75586 19.5928 2.53711C18.374 1.31836 16.874 0.943359 15.1865 0.849609C13.4521 0.755859 8.24902 0.755859 6.51465 0.849609C4.82715 0.943359 3.37402 1.31836 2.1084 2.53711C0.889648 3.75586 0.514648 5.25586 0.420898 6.94336C0.327148 8.67773 0.327148 13.8809 0.420898 15.6152C0.514648 17.3027 0.889648 18.7559 2.1084 20.0215C3.37402 21.2402 4.82715 21.6152 6.51465 21.709C8.24902 21.8027 13.4521 21.8027 15.1865 21.709C16.874 21.6152 18.374 21.2402 19.5928 20.0215C20.8115 18.7559 21.1865 17.3027 21.2803 15.6152C21.374 13.8809 21.374 8.67773 21.2803 6.94336ZM19.0303 17.4434C18.7021 18.3809 17.9521 19.084 17.0615 19.459C15.6553 20.0215 12.374 19.8809 10.874 19.8809C9.32715 19.8809 6.0459 20.0215 4.68652 19.459C3.74902 19.084 3.0459 18.3809 2.6709 17.4434C2.1084 16.084 2.24902 12.8027 2.24902 11.2559C2.24902 9.75586 2.1084 6.47461 2.6709 5.06836C3.0459 4.17773 3.74902 3.47461 4.68652 3.09961C6.0459 2.53711 9.32715 2.67773 10.874 2.67773C12.374 2.67773 15.6553 2.53711 17.0615 3.09961C17.9521 3.42773 18.6553 4.17773 19.0303 5.06836C19.5928 6.47461 19.4521 9.75586 19.4521 11.2559C19.4521 12.8027 19.5928 16.084 19.0303 17.4434Z" fill="black"/>
</svg>
