<svg width="36" height="35" viewBox="0 0 36 35" fill="none" xmlns="http://www.w3.org/2000/svg">
<path d="M20.6936 32.6557L18.9099 34.435C18.1546 35.1884 16.9333 35.1884 16.1861 34.435L0.566419 18.8625C-0.188854 18.1091 -0.188854 16.8909 0.566419 16.1455L16.1861 0.565054C16.9414 -0.188323 18.1627 -0.188323 18.9099 0.565054L20.6936 2.34431C21.4569 3.1057 21.4409 4.34797 20.6615 5.09333L10.9795 14.2942H34.0716C35.1402 14.2942 36 15.1517 36 16.2177V18.7824C36 19.8483 35.1402 20.7059 34.0716 20.7059H10.9795L20.6615 29.9067C21.4489 30.6521 21.465 31.8943 20.6936 32.6557Z" fill="#030303"/>
</svg>
