<svg width="133" height="29" viewBox="0 0 133 29" fill="none" xmlns="http://www.w3.org/2000/svg">
<path d="M6.18 21.16C5.11333 21.16 4.09333 21 3.12 20.68C2.14667 20.3467 1.38 19.92 0.82 19.4L1.56 17.84C2.09333 18.3067 2.77333 18.6933 3.6 19C4.42667 19.3067 5.28667 19.46 6.18 19.46C6.99333 19.46 7.65333 19.3667 8.16 19.18C8.66667 18.9933 9.04 18.74 9.28 18.42C9.52 18.0867 9.64 17.7133 9.64 17.3C9.64 16.82 9.48 16.4333 9.16 16.14C8.85333 15.8467 8.44667 15.6133 7.94 15.44C7.44667 15.2533 6.9 15.0933 6.3 14.96C5.7 14.8267 5.09333 14.6733 4.48 14.5C3.88 14.3133 3.32667 14.08 2.82 13.8C2.32667 13.52 1.92667 13.1467 1.62 12.68C1.31333 12.2 1.16 11.5867 1.16 10.84C1.16 10.12 1.34667 9.46 1.72 8.86C2.10667 8.24667 2.69333 7.76 3.48 7.4C4.28 7.02667 5.29333 6.84 6.52 6.84C7.33333 6.84 8.14 6.94667 8.94 7.16C9.74 7.37333 10.4333 7.68 11.02 8.08L10.36 9.68C9.76 9.28 9.12667 8.99333 8.46 8.82C7.79333 8.63333 7.14667 8.54 6.52 8.54C5.73333 8.54 5.08667 8.64 4.58 8.84C4.07333 9.04 3.7 9.30667 3.46 9.64C3.23333 9.97333 3.12 10.3467 3.12 10.76C3.12 11.2533 3.27333 11.6467 3.58 11.94C3.9 12.2333 4.30667 12.4667 4.8 12.64C5.30667 12.8133 5.86 12.9733 6.46 13.12C7.06 13.2533 7.66 13.4067 8.26 13.58C8.87333 13.7533 9.42667 13.98 9.92 14.26C10.4267 14.54 10.8333 14.9133 11.14 15.38C11.4467 15.8467 11.6 16.4467 11.6 17.18C11.6 17.8867 11.4067 18.5467 11.02 19.16C10.6333 19.76 10.0333 20.2467 9.22 20.62C8.42 20.98 7.40667 21.16 6.18 21.16ZM14.2419 21V10.4H16.1619V21H14.2419ZM15.2019 8.36C14.8285 8.36 14.5152 8.24 14.2619 8C14.0219 7.76 13.9019 7.46667 13.9019 7.12C13.9019 6.76 14.0219 6.46 14.2619 6.22C14.5152 5.98 14.8285 5.86 15.2019 5.86C15.5752 5.86 15.8819 5.98 16.1219 6.22C16.3752 6.44667 16.5019 6.73333 16.5019 7.08C16.5019 7.44 16.3819 7.74667 16.1419 8C15.9019 8.24 15.5885 8.36 15.2019 8.36ZM24.4678 25C23.4945 25 22.5478 24.86 21.6278 24.58C20.7211 24.3133 19.9811 23.9267 19.4078 23.42L20.3278 21.94C20.8211 22.3667 21.4278 22.7 22.1478 22.94C22.8678 23.1933 23.6211 23.32 24.4078 23.32C25.6611 23.32 26.5811 23.0267 27.1678 22.44C27.7545 21.8533 28.0478 20.96 28.0478 19.76V17.52L28.2478 15.42L28.1478 13.3V10.4H29.9678V19.56C29.9678 21.4267 29.5011 22.8 28.5678 23.68C27.6345 24.56 26.2678 25 24.4678 25ZM24.2278 20.56C23.2011 20.56 22.2811 20.3467 21.4678 19.92C20.6678 19.48 20.0278 18.8733 19.5478 18.1C19.0811 17.3267 18.8478 16.4333 18.8478 15.42C18.8478 14.3933 19.0811 13.5 19.5478 12.74C20.0278 11.9667 20.6678 11.3667 21.4678 10.94C22.2811 10.5133 23.2011 10.3 24.2278 10.3C25.1345 10.3 25.9611 10.4867 26.7078 10.86C27.4545 11.22 28.0478 11.78 28.4878 12.54C28.9411 13.3 29.1678 14.26 29.1678 15.42C29.1678 16.5667 28.9411 17.52 28.4878 18.28C28.0478 19.04 27.4545 19.6133 26.7078 20C25.9611 20.3733 25.1345 20.56 24.2278 20.56ZM24.4478 18.88C25.1545 18.88 25.7811 18.7333 26.3278 18.44C26.8745 18.1467 27.3011 17.74 27.6078 17.22C27.9278 16.7 28.0878 16.1 28.0878 15.42C28.0878 14.74 27.9278 14.14 27.6078 13.62C27.3011 13.1 26.8745 12.7 26.3278 12.42C25.7811 12.1267 25.1545 11.98 24.4478 11.98C23.7411 11.98 23.1078 12.1267 22.5478 12.42C22.0011 12.7 21.5678 13.1 21.2478 13.62C20.9411 14.14 20.7878 14.74 20.7878 15.42C20.7878 16.1 20.9411 16.7 21.2478 17.22C21.5678 17.74 22.0011 18.1467 22.5478 18.44C23.1078 18.7333 23.7411 18.88 24.4478 18.88ZM39.2964 10.3C40.1631 10.3 40.9231 10.4667 41.5764 10.8C42.2431 11.1333 42.7631 11.64 43.1364 12.32C43.5097 13 43.6964 13.86 43.6964 14.9V21H41.7764V15.12C41.7764 14.0933 41.5231 13.32 41.0164 12.8C40.5231 12.28 39.8231 12.02 38.9164 12.02C38.2364 12.02 37.6431 12.1533 37.1364 12.42C36.6297 12.6867 36.2364 13.08 35.9564 13.6C35.6897 14.12 35.5564 14.7667 35.5564 15.54V21H33.6364V10.4H35.4764V13.26L35.1764 12.5C35.5231 11.8067 36.0564 11.2667 36.7764 10.88C37.4964 10.4933 38.3364 10.3 39.2964 10.3ZM59.2208 21.16C58.1541 21.16 57.1608 20.98 56.2408 20.62C55.3341 20.26 54.5474 19.76 53.8808 19.12C53.2141 18.4667 52.6941 17.7067 52.3208 16.84C51.9474 15.9733 51.7608 15.0267 51.7608 14C51.7608 12.9733 51.9474 12.0267 52.3208 11.16C52.6941 10.2933 53.2141 9.54 53.8808 8.9C54.5474 8.24667 55.3341 7.74 56.2408 7.38C57.1474 7.02 58.1408 6.84 59.2208 6.84C60.2874 6.84 61.2674 7.02 62.1608 7.38C63.0674 7.72667 63.8541 8.22667 64.5208 8.88C65.2008 9.52 65.7208 10.2733 66.0808 11.14C66.4541 12.0067 66.6408 12.96 66.6408 14C66.6408 15.04 66.4541 15.9933 66.0808 16.86C65.7208 17.7267 65.2008 18.4867 64.5208 19.14C63.8541 19.78 63.0674 20.28 62.1608 20.64C61.2674 20.9867 60.2874 21.16 59.2208 21.16ZM59.2208 19.38C59.9941 19.38 60.7074 19.2467 61.3608 18.98C62.0274 18.7133 62.6008 18.34 63.0808 17.86C63.5741 17.3667 63.9541 16.7933 64.2208 16.14C64.5008 15.4867 64.6408 14.7733 64.6408 14C64.6408 13.2267 64.5008 12.5133 64.2208 11.86C63.9541 11.2067 63.5741 10.64 63.0808 10.16C62.6008 9.66667 62.0274 9.28667 61.3608 9.02C60.7074 8.75333 59.9941 8.62 59.2208 8.62C58.4341 8.62 57.7074 8.75333 57.0408 9.02C56.3874 9.28667 55.8141 9.66667 55.3208 10.16C54.8274 10.64 54.4408 11.2067 54.1608 11.86C53.8941 12.5133 53.7608 13.2267 53.7608 14C53.7608 14.7733 53.8941 15.4867 54.1608 16.14C54.4408 16.7933 54.8274 17.3667 55.3208 17.86C55.8141 18.34 56.3874 18.7133 57.0408 18.98C57.7074 19.2467 58.4341 19.38 59.2208 19.38ZM73.8777 21.12C72.971 21.12 72.171 20.9533 71.4777 20.62C70.7977 20.2867 70.2643 19.78 69.8777 19.1C69.5043 18.4067 69.3177 17.54 69.3177 16.5V10.4H71.2377V16.28C71.2377 17.32 71.4843 18.1 71.9777 18.62C72.4843 19.14 73.191 19.4 74.0977 19.4C74.7643 19.4 75.3443 19.2667 75.8377 19C76.331 18.72 76.711 18.32 76.9777 17.8C77.2443 17.2667 77.3777 16.6267 77.3777 15.88V10.4H79.2977V21H77.4777V18.14L77.7777 18.9C77.431 19.6067 76.911 20.1533 76.2177 20.54C75.5243 20.9267 74.7443 21.12 73.8777 21.12ZM86.5928 21.12C85.5261 21.12 84.6995 20.8333 84.1128 20.26C83.5261 19.6867 83.2328 18.8667 83.2328 17.8V8.08H85.1528V17.72C85.1528 18.2933 85.2928 18.7333 85.5728 19.04C85.8661 19.3467 86.2795 19.5 86.8128 19.5C87.4128 19.5 87.9128 19.3333 88.3128 19L88.9128 20.38C88.6195 20.6333 88.2661 20.82 87.8528 20.94C87.4528 21.06 87.0328 21.12 86.5928 21.12ZM81.4328 11.98V10.4H88.1928V11.98H81.4328Z" fill="#030303"/>
<path d="M126.812 28.4051H121.398C120.973 28.4051 120.625 28.0056 120.625 27.5174V24.5586C120.625 24.0703 120.973 23.6709 121.398 23.6709H126.812C127.953 23.6709 128.875 22.6131 128.875 21.3038V7.10127C128.875 5.79197 127.953 4.73418 126.812 4.73418H121.398C120.973 4.73418 120.625 4.33473 120.625 3.84652V0.887659C120.625 0.399446 120.973 0 121.398 0H126.812C130.229 0 133 3.18078 133 7.10127V21.3038C133 25.2243 130.229 28.4051 126.812 28.4051ZM123.783 13.5368L112.955 1.10957C111.988 0 110.312 0.776701 110.312 2.36709V9.46836H101.547C100.69 9.46836 100 10.2599 100 11.2437V18.3449C100 19.3288 100.69 20.1203 101.547 20.1203H110.312V27.2215C110.312 28.8119 111.988 29.5886 112.955 28.4791L123.783 16.0518C124.383 15.3565 124.383 14.2321 123.783 13.5368Z" fill="black"/>
</svg>
