<svg width="200" height="200" viewBox="0 0 200 200" fill="none" xmlns="http://www.w3.org/2000/svg">
<path d="M100 0C113.261 0 125.979 5.26784 135.355 14.6447C144.732 24.0215 150 36.7392 150 50C150 63.2608 144.732 75.9785 135.355 85.3553C125.979 94.7322 113.261 100 100 100C86.7392 100 74.0215 94.7322 64.6447 85.3553C55.2678 75.9785 50 63.2608 50 50C50 36.7392 55.2678 24.0215 64.6447 14.6447C74.0215 5.26784 86.7392 0 100 0ZM100 125C155.25 125 200 147.375 200 175V200H0V175C0 147.375 44.75 125 100 125Z" fill="#777777"/>
</svg>
