<svg width="51" height="50" viewBox="0 0 51 50" fill="none" xmlns="http://www.w3.org/2000/svg">
<path d="M29.316 46.651L26.7891 49.1928C25.7191 50.2691 23.989 50.2691 22.9304 49.1928L0.802477 26.9464C-0.267492 25.8702 -0.267492 24.1298 0.802477 23.065L22.9304 0.80719C24.0003 -0.269063 25.7305 -0.269063 26.7891 0.80719L29.316 3.34898C30.3974 4.43668 30.3746 6.21136 29.2705 7.27616L15.5544 20.4202H48.2682C49.7821 20.4202 51 21.6453 51 23.1681V26.8319C51 28.3547 49.7821 29.5798 48.2682 29.5798H15.5544L29.2705 42.7238C30.386 43.7886 30.4088 45.5633 29.316 46.651Z" fill="white"/>
</svg>
