<svg width="27" height="19" viewBox="0 0 27 19" fill="none" xmlns="http://www.w3.org/2000/svg">
<path d="M26.0684 3.11523C25.7871 1.99023 24.8965 1.09961 23.8184 0.818359C21.8027 0.255859 13.834 0.255859 13.834 0.255859C13.834 0.255859 5.81836 0.255859 3.80273 0.818359C2.72461 1.09961 1.83398 1.99023 1.55273 3.11523C0.990234 5.08398 0.990234 9.30273 0.990234 9.30273C0.990234 9.30273 0.990234 13.4746 1.55273 15.4902C1.83398 16.6152 2.72461 17.459 3.80273 17.7402C5.81836 18.2559 13.834 18.2559 13.834 18.2559C13.834 18.2559 21.8027 18.2559 23.8184 17.7402C24.8965 17.459 25.7871 16.6152 26.0684 15.4902C26.6309 13.4746 26.6309 9.30273 26.6309 9.30273C26.6309 9.30273 26.6309 5.08398 26.0684 3.11523ZM11.209 13.0996V5.50586L17.8652 9.30273L11.209 13.0996Z" fill="black"/>
</svg>
